<?xml version="1.0" encoding="utf-8"?>
<!-- Generator: Adobe Illustrator 22.0.1, SVG Export Plug-In . SVG Version: 6.00 Build 0)  -->
<svg version="1.1" id="Layer_1" xmlns="http://www.w3.org/2000/svg" xmlns:xlink="http://www.w3.org/1999/xlink" x="0px" y="0px"
	 viewBox="0 0 897.6 223.4" style="enable-background:new 0 0 897.6 223.4;" xml:space="preserve">
<style type="text/css">
	.st0{fill:#FFFFFF;}
	.st1{fill:#23CF8F;}
</style>
<g>
	<path class="st0" d="M124.6,3.4v26.9H76.5v144.1H48.4V30.2H0V3.4H124.6z"/>
	<path class="st0" d="M154.2,72.8c6.7-15.1,19.2-22.7,37.6-22.7v28.6c-10.1-0.6-18.9,1.8-26.4,7.2c-7.5,5.5-11.2,14.5-11.2,27v61.6
		h-26.4V52.2h26.4V72.8z"/>
	<path class="st0" d="M302.5,52.2h26.4v122.2h-26.4v-17.6c-9.9,13.8-24.2,20.8-42.8,20.8c-16.8,0-31.1-6.2-43-18.7
		c-11.9-12.5-17.8-27.6-17.8-45.6c0-18.1,5.9-33.3,17.8-45.7c11.9-12.4,26.2-18.6,43-18.6c18.6,0,32.8,6.8,42.8,20.5V52.2z
		 M236.3,141.3c7.3,7.4,16.5,11.1,27.6,11.1c11.1,0,20.3-3.7,27.6-11.1c7.3-7.4,11-16.7,11-28c0-11.2-3.7-20.6-11-28
		c-7.3-7.4-16.5-11.1-27.6-11.1c-11.1,0-20.3,3.7-27.6,11.1c-7.3,7.4-11,16.7-11,28C225.3,124.6,228.9,133.9,236.3,141.3z"/>
	<path class="st0" d="M417.3,177.6c-18.4,0-33.8-6.2-46.1-18.6c-12.3-12.4-18.4-27.6-18.4-45.7c0-18.2,6.1-33.5,18.4-45.8
		c12.3-12.3,27.6-18.4,46.1-18.4c11.9,0,22.7,2.9,32.5,8.6c9.8,5.7,17.1,13.4,22,23l-22.7,13.2c-2.8-5.9-7-10.5-12.6-13.8
		c-5.6-3.3-12.1-5-19.4-5c-10.8,0-19.8,3.7-27,11c-7.3,7.3-10.9,16.5-10.9,27.4c0,10.9,3.6,20,10.9,27.4c7.2,7.3,16.2,11,27,11
		c7.2,0,13.6-1.7,19.4-5.1c5.8-3.4,10.1-8,13.1-13.7l22.7,12.9c-5.2,9.8-12.7,17.5-22.5,23.2C440,174.7,429.2,177.6,417.3,177.6z"/>
	<path class="st0" d="M599.3,174.4h-31.5L517.7,118v56.4h-26.4V3.4h26.4v102.9l47.4-54h32.3l-53.8,59.9L599.3,174.4z"/>
	<path class="st0" d="M642.2,28.9c-3.3,3.3-7.3,5-11.8,5c-4.6,0-8.5-1.7-11.8-5c-3.3-3.3-5-7.3-5-11.8c0-4.6,1.6-8.5,4.9-11.8
		c3.3-3.3,7.2-5,12-5c4.7,0,8.7,1.7,12,5c3.3,3.3,4.9,7.3,4.9,11.8C647.2,21.6,645.5,25.6,642.2,28.9z M617.2,174.4V52.2h26.4v122.2
		H617.2z"/>
	<path class="st0" d="M738.1,25.6c-19.2-1.8-28.8,6.3-28.8,24.2v2.4h28.8v25.4h-28.8v96.8h-26.4V77.6h-18.6V52.2h18.6v-2.4
		c0-16.8,4.7-29.5,14-38.2c9.4-8.7,23.1-12.5,41.2-11.4V25.6z"/>
	<path class="st0" d="M840.7,52.2h28.1l-46.9,126.1c-11.7,31.6-31.6,46.6-59.6,45v-24.7c8.3,0.5,15-1.3,20-5.3
		c5-4,9.2-10.2,12.5-18.7l1.2-2.4l-51.8-120H773l36.4,88.7L840.7,52.2z"/>
	<path class="st1" d="M892.2,172c-3.6,3.6-7.9,5.4-12.9,5.4c-5.1,0-9.4-1.8-12.9-5.4c-3.6-3.6-5.4-7.9-5.4-12.9
		c0-5,1.7-9.4,5.3-12.9c3.5-3.6,7.9-5.4,13.1-5.4c5,0,9.4,1.8,12.9,5.4c3.6,3.6,5.4,7.9,5.4,12.9C897.6,164.1,895.8,168.4,892.2,172
		z"/>
</g>
</svg>
